<mxfile host="app.diagrams.net" modified="2024-02-24T09:00:48.168Z" agent="Mozilla/5.0 (Macintosh; Intel Mac OS X 10_15_7) AppleWebKit/605.1.15 (KHTML, like Gecko) Version/17.2.1 Safari/605.1.15" version="23.1.6" etag="8IfVnW_D1FvN73iu_Pey" type="github">
  <diagram name="Page-1" id="N-JBOB95r2rz2BT18Ply">
    <mxGraphModel>
      <root>
        <mxCell id="0" />
        <mxCell id="1" parent="0" />
      </root>
    </mxGraphModel>
  </diagram>
</mxfile>
